#!OML:ASF X:\für Bonn\!DataBase\2005_08_12_Daniel\c3d\Daniel.ASF
:FULLY-SPECIFIED
:DEGREES
2017
root -22.9225 17.3537 17.0839 -14.246 -44.9612 362.676
lowerback 11.1663 -1.79066 -3.50283
upperback 2.00562 -2.90394 -1.55292
thorax -4.06685 -1.41844 0.771012
lowerneck 2.58163 2.5743 -2.50058
upperneck 21.601 2.97661 1.20704
head 6.05916 1.15684 0.915754
rclavicle 3.18801e-014 -7.95139e-015
rhumerus -39.7295 -7.68399 -86.9309
rradius 35.7992
rwrist 3.95006
rhand -17.6081 16.4771
rfingers 7.12502
rthumb 8.64853 -13.3258
lclavicle 3.18801e-014 -7.95139e-015
lhumerus -32.6463 16.7354 85.3106
lradius 29.0081
lwrist -17.631
lhand -11.5626 -6.18626
lfingers 7.12502
lthumb 14.4785 23.2886
rfemur -4.12056 4.50346 22.3349
rtibia 38.2141
rfoot -19.6721 -2.78142
rtoes -3.59391
lfemur -17.8335 -6.03489 -19.1714
ltibia 64.1957
lfoot -9.19599 -10.6277
ltoes -10.9166
2018
root -22.9885 17.3809 17.1766 -14.4465 -45.8709 362.991
lowerback 11.2302 -1.59377 -3.36789
upperback 1.96138 -2.64029 -1.71273
thorax -4.17199 -1.28885 0.495445
lowerneck 2.63322 2.62468 -2.37838
upperneck 21.4206 3.05364 1.14181
head 5.99462 1.20195 0.875156
rclavicle 8.4235e-015 1.27222e-014
rhumerus -39.3757 -5.21541 -88.9935
rradius 37.4241
rwrist 3.66542
rhand -16.7923 16.5599
rfingers 7.12502
rthumb 9.43573 -13.2089
lclavicle 8.4235e-015 1.27222e-014
lhumerus -33.3199 19.5515 82.8299
lradius 26.2439
lwrist -20.945
lhand -11.3662 -6.54057
lfingers 7.12502
lthumb 14.6677 22.9206
rfemur -3.60045 5.04536 22.2031
rtibia 37.8456
rfoot -19.5692 -2.3096
rtoes -3.25992
lfemur -18.0574 -6.08234 -19.2437
ltibia 62.0987
lfoot -9.38654 -10.6824
ltoes -10.6993
2019
root -23.0542 17.4054 17.2707 -14.6238 -46.785 363.258
lowerback 11.3032 -1.41803 -3.24234
upperback 1.93367 -2.40215 -1.80348
thorax -4.2579 -1.17215 0.299423
lowerneck 2.72449 2.69144 -2.30615
upperneck 21.1642 3.16073 1.04036
head 5.89902 1.2568 0.83137
rclavicle -6.49777e-014 -1.70955e-014
rhumerus -38.9453 -2.51104 -90.8971
rradius 38.9536
rwrist 3.20339
rhand -16.1584 16.6454
rfingers 7.12502
rthumb 10.0473 -13.0948
lclavicle -6.49777e-014 -1.70955e-014
lhumerus -34.2108 23.1383 79.9147
lradius 23.5241
lwrist -25.1259
lhand -11.2983 -6.85633
lfingers 7.12502
lthumb 14.7331 22.6001
rfemur -3.03097 5.75385 22.1646
rtibia 37.4282
rfoot -19.5213 -2.00682
rtoes -3.22446
lfemur -18.2057 -6.25066 -19.2173
ltibia 59.9271
lfoot -9.48652 -10.7771
ltoes -10.0832
2020
root -23.1198 17.4302 17.3642 -14.7522 -47.7188 363.455
lowerback 11.394 -1.25543 -3.01974
upperback 1.88496 -2.17294 -1.93179
thorax -4.37871 -1.0611 0.0108998
lowerneck 2.83792 2.76847 -2.14381
upperneck 20.9095 3.27808 0.936066
head 5.80203 1.32299 0.771625
rclavicle -6.52759e-014 -1.94809e-014
rhumerus -38.519 0.0419221 -92.6991
rradius 40.3999
rwrist 2.72246
rhand -15.5682 16.7216
rfingers 7.12502
rthumb 10.6167 -12.9902
lclavicle -6.52759e-014 -1.94809e-014
lhumerus -35.6161 27.2302 76.222
lradius 21.0275
lwrist -30.2005
lhand -11.1639 -7.0455
lfingers 7.12502
lthumb 14.8626 22.4014
rfemur -2.43016 6.45877 22.1929
rtibia 36.9442
rfoot -19.4908 -1.73716
rtoes -3.25616
lfemur -18.3116 -6.57324 -19.0946
ltibia 57.6947
lfoot -9.60635 -10.8779
ltoes -9.29544
2021
root -23.1858 17.4547 17.4578 -14.8751 -48.6544 363.688
lowerback 11.4212 -1.10026 -2.8856
upperback 1.86986 -1.95735 -2.00535
thorax -4.42105 -0.956857 -0.172039
lowerneck 2.74918 2.84313 -2.11856
upperneck 20.7361 3.39849 0.861581
head 5.76212 1.38215 0.748249
rclavicle -5.15846e-014 7.95139e-015
rhumerus -38.0872 2.59155 -94.2552
rradius 41.883
rwrist 2.28512
rhand -15.0615 16.7849
rfingers 7.12502
rthumb 11.1054 -12.9012
lclavicle -5.15846e-014 7.95139e-015
lhumerus -37.6006 32.0215 71.7193
lradius 18.7285
lwrist -36.1493
lhand -11.0582 -7.01538
lfingers 7.12502
lthumb 14.9644 22.424
rfemur -1.8193 7.32326 22.244
rtibia 36.4023
rfoot -19.469 -1.61738
rtoes -3.16836
lfemur -18.3879 -6.9855 -18.9361
ltibia 55.4103
lfoot -9.79264 -11.1651
ltoes -8.97361
2022
root -23.2507 17.4754 17.5515 -14.9016 -49.6277 363.779
lowerback 11.5205 -0.93904 -2.6135
upperback 1.78779 -1.7221 -2.09535
thorax -4.5767 -0.843298 -0.451132
lowerneck 2.66131 2.90651 -1.97235
upperneck 20.6845 3.49932 0.77095
head 5.76353 1.4368 0.7
rclavicle 4.56708e-014 8.34896e-015
rhumerus -37.8689 4.83628 -95.6749
rradius 43.4623
rwrist 1.93341
rhand -14.5719 16.9081
rfingers 7.12502
rthumb 11.5777 -12.7521
lclavicle 4.56708e-014 8.34896e-015
lhumerus -40.8028 37.4614 65.7006
lradius 16.6417
lwrist -43.2842
lhand -11.0748 -6.81598
lfingers 7.12502
lthumb 14.9484 22.6246
rfemur -1.1866 8.06405 22.369
rtibia 35.7905
rfoot -19.407 -1.39209
rtoes -3.26347
lfemur -18.409 -7.54494 -18.6289
ltibia 53.13
lfoot -9.98847 -11.5048
ltoes -8.90031
2023
root -23.3165 17.4958 17.6468 -14.7901 -50.6165 363.74
lowerback 11.5303 -0.79631 -2.27822
upperback 1.74493 -1.4964 -2.15532
thorax -4.63935 -0.737057 -0.736099
lowerneck 2.41262 2.96504 -1.88495
upperneck 20.6625 3.5907 0.745731
head 5.7991 1.48728 0.684885
rclavicle 8.94283e-014 3.02153e-014
rhumerus -37.5194 7.20086 -96.9743
rradius 44.9125
rwrist 1.44424
rhand -14.2416 17.1562
rfingers 7.12502
rthumb 11.8961 -12.4858
lclavicle 8.94283e-014 3.02153e-014
lhumerus -45.6818 43.5008 57.6381
lradius 14.8423
lwrist -51.8093
lhand -11.2015 -6.41425
lfingers 7.12502
lthumb 14.8263 23.0353
rfemur -0.570433 8.70016 22.5491
rtibia 35.1124
rfoot -19.3271 -1.09966
rtoes -3.43001
lfemur -18.4337 -8.27155 -18.1828
ltibia 50.883
lfoot -10.0297 -11.903
ltoes -9.21539
2024
root -23.3818 17.5143 17.7404 -14.6426 -51.6281 363.699
lowerback 11.5491 -0.654502 -1.99051
upperback 1.65925 -1.27705 -2.18838
thorax -4.74708 -0.632584 -0.965571
lowerneck 2.13205 3.01434 -1.85976
upperneck 20.7162 3.66784 0.736194
head 5.86288 1.52551 0.68597
rclavicle 6.88043e-014 3.18055e-015
rhumerus -37.2196 9.54815 -98.1248
rradius 46.2974
rwrist 0.921105
rhand -13.9621 17.5129
rfingers 7.12502
rthumb 12.1657 -12.1134
lclavicle 6.88043e-014 3.18055e-015
lhumerus -53.0599 49.233 47.0577
lradius 13.4879
lwrist -60.9129
lhand -11.3487 -5.85801
lfingers 7.12502
lthumb 14.6845 23.602
rfemur 0.0316061 9.31658 22.7042
rtibia 34.3759
rfoot -19.2151 -0.733943
rtoes -3.31507
lfemur -18.506 -9.16964 -17.6646
ltibia 48.7155
lfoot -10.2305 -12.5315
ltoes -9.81147
2025
root -23.4482 17.53 17.8348 -14.3655 -52.6394 363.508
lowerback 11.5064 -0.529413 -1.62265
upperback 1.60987 -1.06507 -2.19672
thorax -4.78108 -0.53392 -1.21453
lowerneck 1.84421 3.06403 -1.74162
upperneck 20.7122 3.7546 0.662204
head 5.91291 1.57239 0.651409
rclavicle -6.7885e-014 -4.77083e-015
rhumerus -36.819 11.6728 -99.1118
rradius 47.5277
rwrist 0.498358
rhand -13.8001 18.0726
rfingers 7.12502
rthumb 12.3219 -11.5444
lclavicle -6.7885e-014 -4.77083e-015
lhumerus -63.573 54.0878 33.1926
lradius 12.5086
lwrist -70.4528
lhand -11.5514 -5.30856
lfingers 7.12502
lthumb 14.4893 24.1655
rfemur 0.640458 9.9127 22.9621
rtibia 33.5906
rfoot -19.1583 -0.400305
rtoes -3.51953
lfemur -18.5842 -10.2474 -17.0046
ltibia 46.642
lfoot -10.515 -13.2941
ltoes -10.4602
2026
root -23.5144 17.5424 17.93 -14.1157 -53.6422 363.361
lowerback 11.4379 -0.395785 -1.31882
upperback 1.57381 -0.847923 -2.18878
thorax -4.78268 -0.431792 -1.4114
lowerneck 1.58187 3.10791 -1.68823
upperneck 20.6929 3.82687 0.633944
head 5.95188 1.61062 0.641065
rclavicle 3.34952e-014 5.1684e-015
rhumerus -36.3566 13.8394 -99.9545
rradius 48.647
rwrist 0.0279681
rhand -13.69 18.661
rfingers 7.12502
rthumb 12.428 -10.9495
lclavicle 3.34952e-014 5.1684e-015
lhumerus -77.1431 57.1095 16.2986
lradius 11.9229
lwrist -80.174
lhand -11.6974 -4.77394
lfingers 7.12502
lthumb 14.3486 24.7102
rfemur 1.25377 10.5282 23.1704
rtibia 32.8059
rfoot -19.101 -0.0553113
rtoes -3.62367
lfemur -18.6623 -11.4992 -16.353
ltibia 44.6546
lfoot -10.8944 -14.1497
ltoes -11.3639
2027
root -23.5778 17.5481 18.0263 -13.7475 -54.6579 363.07
lowerback 11.3684 -0.281734 -0.908568
upperback 1.55981 -0.641681 -2.15131
thorax -4.75925 -0.336655 -1.63559
lowerneck 1.26231 3.15066 -1.69944
upperneck 20.6847 3.90183 0.609709
head 6.00283 1.64567 0.644196
rclavicle 4.20678e-014 -1.59028e-014
rhumerus -35.8038 15.8816 -100.694
rradius 49.6315
rwrist -0.489649
rhand -13.8056 19.2787
rfingers 7.12502
rthumb 12.3166 -10.3385
lclavicle 4.20678e-014 -1.59028e-014
lhumerus -91.9747 57.6858 -1.75546
lradius 11.6634
lwrist -89.5417
lhand -11.8805 -4.33681
lfingers 7.12502
lthumb 14.1722 25.1598
rfemur 1.82857 11.1108 23.4467
rtibia 32.0691
rfoot -19.0846 0.331574
rtoes -3.65615
lfemur -18.7679 -12.9414 -15.5691
ltibia 42.7602
lfoot -11.2037 -15.0184
ltoes -12.5443
